Simulation
nRows=24
nColumns=15
endheader
time  TH_x TH_y TH_z SC_y  SC_z  SC_x  AC_y  AC_z  AC_x  GH_y  GH_z  GH_yy  EL_x  PS_y
2.8725  0.000000  0.000000  0.000000  -34.619240632396256  0.528855358210873  -23.238543985656353  37.666662868954695  21.182907392998807  14.758417925386023  42.75010673229299  7.634704612072807  -35.433238241204265  14.067289582281951  120.000000
2.92995  0.000000  0.000000  0.000000  -34.79489474973392  0.49787470449074367  -22.340811063570868  38.14808041000445  21.214229818915786  14.2882821098075  54.02629016476631  6.6311551396541795  -43.80231599434634  14.429356682216646  120.000000
2.9874  0.000000  0.000000  0.000000  -35.02393047328809  0.5343238792427878  -21.256316453146592  38.64728771359751  21.127996392542382  13.704071800158744  66.6712901669053  6.105645965530897  -54.020235814802824  14.875545403369442  120.000000
3.0448500000000003  0.000000  0.000000  0.000000  -35.276922978815264  0.6438438879920292  -20.03216303072921  39.12824473018236  20.915054195920828  13.03148475674469  78.9225249721226  5.983809832776777  -64.35937810666344  15.361115818380235  120.000000
3.1023  0.000000  0.000000  0.000000  -35.52432356859439  0.8217416342418394  -18.718413862049072  39.570184066886796  20.579723666425284  12.29998593685586  89.24699136877011  6.130269810701353  -73.26478428212293  15.843605451980757  120.000000
3.15975  0.000000  0.000000  0.000000  -35.7435540228869  1.0545792462247916  -17.367603131921317  39.96687515546771  20.1409317446824  11.542266896936422  97.09601800260477  6.401482460439413  -80.1262410127997  16.293578748978177  120.000000
3.2172  0.000000  0.000000  0.000000  -35.921157494465206  1.3213623057238912  -16.031189276978882  40.3214908628945  19.626281603562937  10.79071748538776  102.64898736599999  6.688036603253951  -85.03747056626972  16.700706824400676  120.000000
3.2746500000000003  0.000000  0.000000  0.000000  -36.04918310011875  1.597571677090449  -14.752119111705682  40.64294079087517  19.063349401329738  10.070702475408549  106.33262143238181  6.924945993480916  -88.32894993044434  17.071692058166644  120.000000
3.3321  0.000000  0.000000  0.000000  -36.1232122846466  1.8602753653662365  -13.561182402580277  40.942427326449774  18.475699899982903  9.398275387081842  108.57244458164013  7.085458813624175  -90.33213234270364  17.423308512983233  120.000000
3.38955  0.000000  0.000000  0.000000  -36.14301258926582  2.092519617735744  -12.477867541401421  41.22940026259474  17.88152919832954  8.782353534416298  109.72373351188835  7.170809948392547  -91.32339846041744  17.771076095065716  120.000000
3.447  0.000000  0.000000  0.000000  -36.11484847431321  2.2844701058889103  -11.51175653593921  41.50855979037644  17.294654441743557  8.227070906191006  110.06087750162052  7.200126327713128  -91.52224319525133  18.123941453642324  120.000000
3.5044500000000003  0.000000  0.000000  0.000000  -36.051443794873464  2.4325501584304345  -10.664549785194982  41.77906156476514  16.72616387077383  7.733566260036287  109.7887620939526  7.199642352252878  -91.10346575289985  18.484450778013265  120.000000
3.5619  0.000000  0.000000  0.000000  -35.96827032617805  2.5381722371621898  -9.933128710892682  42.03535565705593  16.18553080234088  7.3008913290423925  109.0640017632116  7.193792520258227  -90.21262194395356  18.85091555112149  120.000000
3.61935  0.000000  0.000000  0.000000  -35.878260552028195  2.6069293608230635  -9.312688109942345  42.26925663616434  15.680757698031828  6.92665620681098  108.01086674600315  7.200529523574043  -88.972978106008  19.220718017590908  120.000000
3.6768  0.000000  0.000000  0.000000  -35.78802972846994  2.6466217276314676  -8.799431868220369  42.47169809648276  15.218135532243723  6.606757071529098  106.72401351738726  7.230777559449337  -87.48151187460559  19.592179495235836  120.000000
3.7342500000000003  0.000000  0.000000  0.000000  -35.6971648185881  2.6645308640642344  -8.391793030192192  42.63293415106443  14.801642546085738  6.335198642969118  105.26169822330733  7.289281561620962  -85.79787500131094  19.965053340207206  120.000000
3.7917  0.000000  0.000000  0.000000  -35.60014461855779  2.665534330408944  -8.090088083860104  42.74183674808186  14.432191132784487  6.104753863881594  103.63450497908178  7.376067687454587  -83.93130116965955  20.339811186319874  120.000000
3.84915  0.000000  0.000000  0.000000  -35.48829747317365  2.6511321474069787  -7.895820186896064  42.78726974984076  14.107743778616658  5.9072386653650275  101.79072472678493  7.48865059141736  -81.82513340629636  20.716676896705472  120.000000
3.9066  0.000000  0.000000  0.000000  -35.35105991661483  2.618932138879708  -7.8109912480856005  42.76045401725546  13.824163042533176  5.733794611984616  99.6098393899024  7.624797515076229  -79.35043827151674  21.094620181014854  120.000000
3.9640500000000003  0.000000  0.000000  0.000000  -35.17689877867747  2.5637716086964955  -7.837531944612728  42.656533109031486  13.57558116756121  5.576453149435796  96.91593890210045  7.786977220896021  -76.32115156031159  21.47117492890012  120.000000
4.0215  0.000000  0.000000  0.000000  -34.954800804650944  2.479499108729459  -7.97717022163747  42.47505457658335  13.355052481824499  5.429188008208083  93.51409857599502  7.989487895177137  -72.53561831794968  21.842438608402002  120.000000
4.07895  0.000000  0.000000  0.000000  -34.67652499301225  2.3619709899342434  -8.231230738800859  42.22045294118215  13.155821925414296  5.287614970266198  89.25842231520222  8.267774565250393  -67.85219003814835  22.202457420182952  120.000000
4.1364  0.000000  0.000000  0.000000  -34.340622555814946  2.212817243455842  -8.598401914369903  41.900664854102025  12.971240520177629  5.151561953451534  84.16375840372982  8.685883697619014  -62.308413687050006  22.541320992460093  120.000000
4.19385  0.000000  0.000000  0.000000  -33.95571594765727  2.0404437952965844  -9.069754664418086  41.52046462601134  12.794198875562806  5.031234385835908  78.51032469866713  9.32820238084245  -56.228032483478806  22.841949259190798  120.000000
